<svg width="500" height="500" viewBox="0 0 500 500" fill="none" xmlns="http://www.w3.org/2000/svg">
<rect width="500" height="500" fill="#5DC1B9"/>
<path d="M137.403 341.897C132.715 341.897 129.115 340.478 126.603 337.639C124.092 334.8 122.417 331.294 121.58 327.119C120.073 320.44 118.315 312.091 116.306 302.072C114.464 291.886 112.455 281.032 110.278 269.51C108.101 257.822 105.925 246.3 103.748 234.945C101.739 223.423 99.8969 212.987 98.2225 203.636C96.5481 194.118 95.2086 186.52 94.204 180.843C93.1994 175.165 92.697 172.327 92.697 172.327C92.1947 169.488 92.1947 167.568 92.697 166.566C93.1994 165.564 95.2924 165.063 98.976 165.063H122.585L135.143 246.717C136.482 254.899 137.654 263.416 138.659 272.266C139.831 281.116 140.919 289.465 141.924 297.313C142.929 305.161 143.766 311.84 144.436 317.351C144.938 311.84 145.608 305.161 146.445 297.313C147.282 289.465 148.203 281.116 149.208 272.266C150.38 263.416 151.552 254.899 152.724 246.717L163.524 172.577C163.859 169.905 164.445 167.985 165.282 166.816C166.119 165.647 167.793 165.063 170.305 165.063H195.17L162.017 340.394C157.831 340.895 153.98 341.229 150.463 341.396C147.115 341.73 142.761 341.897 137.403 341.897Z" fill="#D5FFFF"/>
<path d="M203.94 340.394V177.336C203.94 173.162 204.359 170.239 205.196 168.57C206.033 166.9 208.461 165.898 212.48 165.564C216.498 165.23 223.196 165.063 232.572 165.063V335.385C232.572 337.055 232.154 338.224 231.317 338.891C230.48 339.559 228.052 339.977 224.033 340.144C220.182 340.311 213.484 340.394 203.94 340.394Z" fill="#D5FFFF"/>
<path d="M247.599 340.394V170.072C247.599 170.072 247.85 169.238 248.352 167.568C248.855 165.898 250.278 165.063 252.622 165.063H312.9C312.9 172.577 312.816 178.088 312.649 181.594C312.481 185.101 312.063 187.439 311.393 188.607C310.723 189.609 309.551 190.11 307.877 190.11H275.729V315.347H311.142C311.142 323.195 311.058 328.873 310.891 332.379C310.723 335.886 310.305 338.14 309.635 339.142C308.965 339.977 307.793 340.394 306.119 340.394H247.599ZM249.608 258.239V232.691H306.119C306.119 243.211 305.867 250.14 305.365 253.48C305.03 256.653 303.691 258.239 301.347 258.239H249.608ZM269.45 152.79C267.105 152.79 265.096 151.537 263.422 149.033C261.747 146.361 260.492 143.773 259.654 141.268C258.985 138.763 258.65 137.511 258.65 137.511C260.826 134.505 263.589 131.333 266.938 127.993C270.287 124.653 273.719 121.481 277.235 118.475C280.752 115.302 283.849 112.798 286.528 110.961C289.207 108.957 290.882 107.955 291.551 107.955C294.733 107.955 297.496 110.209 299.84 114.718C302.184 119.226 303.691 123.818 304.361 128.494C302.854 130.331 300.342 132.585 296.826 135.257C293.31 137.928 289.542 140.6 285.524 143.272C281.673 145.944 278.156 148.198 274.975 150.035C271.961 151.871 270.119 152.79 269.45 152.79Z" fill="#D5FFFF"/>
<path d="M352.283 342.899C341.064 342.899 332.776 341.229 327.418 337.89C322.06 334.383 319.381 330.459 319.381 326.117C319.381 323.279 319.883 320.022 320.888 316.349C321.893 312.508 323.483 309.002 325.66 305.829C328.339 308.167 331.771 310.171 335.957 311.84C340.143 313.343 344.497 314.095 349.018 314.095C355.883 314.095 360.655 312.341 363.334 308.835C366.013 305.328 367.352 300.653 367.352 294.808C367.352 290.467 366.515 286.376 364.841 282.535C363.334 278.694 360.403 273.935 356.05 268.258L333.195 237.7C327.502 230.019 323.734 223.34 321.893 217.662C320.051 211.985 319.13 206.391 319.13 200.881C319.13 189.526 322.897 180.342 330.432 173.329C337.967 166.148 349.101 162.558 363.836 162.558C376.561 162.558 385.436 163.811 390.459 166.315C395.482 168.82 397.993 172.243 397.993 176.585C397.993 178.923 397.491 181.511 396.487 184.349C395.482 187.021 393.807 189.693 391.463 192.365C390.124 191.363 387.361 190.277 383.175 189.108C378.989 187.94 374.468 187.355 369.613 187.355C363.417 187.355 358.562 188.441 355.045 190.611C351.529 192.615 349.771 195.788 349.771 200.129C349.771 203.97 350.441 207.56 351.78 210.9C353.287 214.072 355.631 217.913 358.813 222.421L382.924 253.23C388.952 260.911 392.97 267.841 394.98 274.019C396.989 280.197 397.993 286.877 397.993 294.057C397.993 302.406 396.654 310.338 393.975 317.852C391.463 325.199 386.942 331.21 380.412 335.886C373.882 340.561 364.506 342.899 352.283 342.899Z" fill="#D5FFFF"/>
<path d="M70.1505 151.008C67.1497 151.008 64.649 149.948 62.6485 147.83C60.6979 145.765 59.7227 143.355 59.7227 140.602C59.7227 137.795 60.3478 135.2 61.5982 132.817C62.8485 130.381 64.624 128.13 66.9246 126.065C69.2753 123.999 72.3261 122.305 76.0771 120.981C79.8281 119.604 83.9793 118.836 88.5305 118.677C91.1812 111.74 93.5319 103.982 95.5824 95.4026C95.6324 95.0849 95.6574 94.6877 95.6574 94.2111C95.6574 93.6815 95.4074 93.2314 94.9072 92.8607V92.0663C99.2084 91.219 103.134 90.7954 106.685 90.7954L111.187 91.1131C112.487 93.5491 113.212 96.9384 113.362 101.281C113.512 105.57 113.612 113.037 113.662 123.682C119.064 126.171 123.69 129.322 127.541 133.135C127.341 133.823 126.941 134.511 126.341 135.2C125.791 135.835 125.266 136.312 124.765 136.63L124.015 137.106C121.064 134.035 117.638 131.413 113.737 129.242C113.837 132.261 114.112 134.803 114.563 136.868C115.263 140.257 116.088 141.952 117.038 141.952C117.588 141.952 118.239 141.82 118.989 141.555L120.114 144.653C116.663 146.983 113.362 148.148 110.211 148.148C105.01 148.148 102.409 143.991 102.409 135.677V125.27C98.9083 124.37 95.7325 123.814 92.8817 123.602C86.3799 141.873 78.8029 151.008 70.1505 151.008ZM86.655 123.523C81.0035 123.999 76.3022 126.091 72.5512 129.798C68.8001 133.505 66.9246 136.974 66.9246 140.204C66.9246 143.435 68.0999 145.05 70.4506 145.05C75.2519 145.05 80.6534 137.874 86.655 123.523ZM101.584 97.1502C101.484 97.0973 101.284 97.0708 100.984 97.0708C100.684 97.0708 100.484 97.0973 100.384 97.1502C99.9336 101.175 97.9831 108.404 94.5321 118.836C96.9828 118.995 99.6085 119.366 102.409 119.948C102.409 106.921 102.134 99.3215 101.584 97.1502Z" fill="#9CE0DB"/>
<path d="M144.995 112.958C144.894 114.282 144.469 115.818 143.719 117.565C141.819 117.353 140.018 117.247 138.318 117.247H136.967C134.667 129.057 133.516 136.418 133.516 139.331C133.516 140.866 133.816 141.634 134.417 141.634C135.067 141.634 136.742 140.972 139.443 139.648L140.793 142.27C136.342 146.189 132.216 148.148 128.415 148.148C126.665 148.148 125.214 147.565 124.064 146.4C122.964 145.235 122.413 143.7 122.413 141.793C122.413 139.834 122.613 137.636 123.014 135.2C123.464 132.764 124.064 129.798 124.814 126.303C125.564 122.755 126.114 119.895 126.464 117.724C124.614 117.883 123.239 118.042 122.338 118.201C122.238 117.565 122.188 116.718 122.188 115.659C122.188 114.547 122.263 113.646 122.413 112.958H127.14C127.54 110.098 127.74 107.397 127.74 104.855L127.665 102.393V102.155C131.566 100.725 135.242 100.01 138.693 100.01C138.893 101.069 138.993 102.393 138.993 103.982C138.993 105.57 138.568 108.562 137.718 112.958H144.995Z" fill="#9CE0DB"/>
<path d="M143.338 133.452C143.338 126.833 145.214 121.616 148.965 117.804C152.766 113.938 157.067 112.005 161.868 112.005C164.819 112.005 167.245 112.773 169.145 114.308C171.046 115.844 171.996 117.909 171.996 120.504C171.996 123.046 171.371 125.191 170.121 126.939C168.92 128.686 167.445 130.037 165.694 130.99C162.143 132.843 158.892 134.008 155.942 134.485L154.141 134.723C154.491 139.701 156.417 142.19 159.918 142.19C161.118 142.19 162.393 141.873 163.744 141.237C165.094 140.602 166.144 139.966 166.895 139.331L168.02 138.377L169.82 140.919C169.42 141.502 168.62 142.27 167.42 143.223C166.219 144.176 165.094 144.971 164.044 145.606C161.143 147.301 157.967 148.148 154.516 148.148C151.065 148.148 148.34 146.85 146.339 144.256C144.338 141.661 143.338 138.06 143.338 133.452ZM154.066 130.831C156.617 130.354 158.642 129.216 160.143 127.415C161.643 125.615 162.393 123.285 162.393 120.425C162.393 117.565 161.593 116.135 159.993 116.135C158.092 116.135 156.617 117.856 155.567 121.299C154.566 124.688 154.066 127.865 154.066 130.831Z" fill="#9CE0DB"/>
<path d="M179.379 148.148C177.679 148.148 176.253 147.539 175.103 146.321C174.003 145.103 173.452 143.408 173.452 141.237C173.452 139.013 174.678 131.996 177.128 120.187C179.629 108.324 180.879 99.7716 180.879 94.5288L180.429 91.0337C184.33 89.6038 187.981 88.8889 191.382 88.8889C191.883 89.6303 192.133 90.9278 192.133 92.7813C192.133 97.0178 190.857 105.226 188.307 117.406C185.806 129.534 184.556 136.603 184.556 138.616C184.556 140.575 184.781 141.555 185.231 141.555L190.482 139.569L191.832 142.349C190.132 143.779 188.056 145.103 185.606 146.321C183.205 147.539 181.13 148.148 179.379 148.148Z" fill="#9CE0DB"/>
<path d="M209.059 116.93C209.059 119.154 208.384 122.993 207.034 128.448C205.683 133.85 205.008 137.398 205.008 139.092C205.008 140.734 205.233 141.555 205.683 141.555C205.983 141.555 207.134 141.052 209.134 140.045L210.034 139.569L211.31 142.349C210.86 142.773 210.259 143.302 209.509 143.938C208.759 144.573 207.359 145.447 205.308 146.559C203.257 147.618 201.357 148.148 199.606 148.148C197.856 148.148 196.481 147.592 195.48 146.48C194.48 145.315 193.98 143.779 193.98 141.873C193.98 139.913 194.605 136.471 195.855 131.546C197.106 126.568 197.731 123.338 197.731 121.855C197.731 119.631 197.081 117.539 195.78 115.579L195.105 114.626L195.18 113.593C197.831 112.799 202.132 112.402 208.084 112.402C208.734 113.196 209.059 114.706 209.059 116.93ZM200.507 103.743C199.506 102.684 199.006 101.281 199.006 99.5333C199.006 97.7857 199.681 96.25 201.032 94.926C202.432 93.6021 204.033 92.9401 205.833 92.9401C207.634 92.9401 209.034 93.4697 210.034 94.5288C211.035 95.588 211.535 96.9914 211.535 98.7389C211.535 100.434 210.81 101.943 209.359 103.267C207.959 104.591 206.383 105.253 204.633 105.253C202.882 105.253 201.507 104.75 200.507 103.743Z" fill="#9CE0DB"/>
<path d="M213.67 133.452C213.67 126.833 215.545 121.616 219.296 117.804C223.097 113.938 227.399 112.005 232.2 112.005C235.151 112.005 237.576 112.773 239.477 114.308C241.377 115.844 242.328 117.909 242.328 120.504C242.328 123.046 241.703 125.191 240.452 126.939C239.252 128.686 237.776 130.037 236.026 130.99C232.475 132.843 229.224 134.008 226.273 134.485L224.473 134.723C224.823 139.701 226.748 142.19 230.249 142.19C231.45 142.19 232.725 141.873 234.075 141.237C235.426 140.602 236.476 139.966 237.226 139.331L238.352 138.377L240.152 140.919C239.752 141.502 238.952 142.27 237.751 143.223C236.551 144.176 235.426 144.971 234.376 145.606C231.475 147.301 228.299 148.148 224.848 148.148C221.397 148.148 218.671 146.85 216.671 144.256C214.67 141.661 213.67 138.06 213.67 133.452ZM224.398 130.831C226.948 130.354 228.974 129.216 230.474 127.415C231.975 125.615 232.725 123.285 232.725 120.425C232.725 117.565 231.925 116.135 230.324 116.135C228.424 116.135 226.948 117.856 225.898 121.299C224.898 124.688 224.398 127.865 224.398 130.831ZM236.551 91.1925C238.202 91.1925 241.377 95.6674 246.079 104.617L243.753 106.921C239.452 103.373 236.226 101.175 234.075 100.328C230.024 101.493 225.298 103.796 219.897 107.239L217.871 104.299C220.522 101.599 223.948 98.7389 228.149 95.7204C232.4 92.7018 235.201 91.1925 236.551 91.1925Z" fill="#9CE0DB"/>
<path d="M182.718 385.018C182.718 379.501 181.513 375.05 179.102 371.665C176.741 368.234 173.028 366.519 167.962 366.519C164.912 366.519 162.207 367.446 159.846 369.3C158.518 371.248 157.461 373.867 156.674 377.159C155.936 380.451 155.567 383.581 155.567 386.548C155.567 392.019 156.747 396.401 159.108 399.693C161.469 402.985 165.207 404.631 170.323 404.631C173.126 404.631 175.512 403.564 177.479 401.431C180.971 397.583 182.718 392.112 182.718 385.018ZM167.814 411.168C160.633 411.168 155.173 408.943 151.435 404.492C147.697 399.994 145.828 394.129 145.828 386.896C145.828 379.617 148.14 373.334 152.763 368.049C157.387 362.763 163.265 360.12 170.396 360.12C177.578 360.12 183.037 362.392 186.775 366.936C190.563 371.48 192.456 377.391 192.456 384.67C192.456 391.95 190.145 398.186 185.521 403.379C180.898 408.572 174.995 411.168 167.814 411.168Z" fill="#D5FFFF"/>
<path d="M222.439 375.977C222.636 375.05 222.734 374.099 222.734 373.126C222.734 368.628 220.398 366.379 215.725 366.379C213.61 366.379 211.815 366.797 210.339 367.631C208.962 369.161 208.273 370.993 208.273 373.126C208.273 374.517 208.913 375.722 210.192 376.742C211.47 377.716 213.044 378.481 214.913 379.037C216.832 379.593 218.897 380.289 221.111 381.124C223.324 381.958 225.365 382.862 227.234 383.836C229.153 384.763 230.751 386.177 232.03 388.078C233.309 389.933 233.948 392.135 233.948 394.685C233.948 399.554 231.956 403.518 227.972 406.578C224.037 409.638 219.291 411.168 213.733 411.168C209.257 411.168 205.445 410.125 202.297 408.039C199.199 405.906 197.649 402.938 197.649 399.136C197.649 397.189 198.264 395.566 199.494 394.268C200.772 392.923 202.273 392.251 203.994 392.251C205.765 392.251 207.068 392.46 207.904 392.877C207.511 394.268 207.314 395.52 207.314 396.633C207.314 399.136 208.052 401.13 209.528 402.614C211.052 404.051 213.143 404.77 215.799 404.77C218.455 404.77 220.594 404.121 222.218 402.822C223.841 401.524 224.652 399.809 224.652 397.676C224.652 395.497 223.742 393.712 221.922 392.321C220.152 390.93 217.988 389.817 215.43 388.982C212.872 388.148 210.315 387.267 207.757 386.34C205.199 385.412 203.01 384.045 201.191 382.236C199.42 380.382 198.534 378.063 198.534 375.282C198.534 370.923 200.527 367.307 204.511 364.432C208.544 361.557 213.094 360.12 218.16 360.12C221.898 360.12 225.119 360.839 227.825 362.276C230.579 363.667 231.956 365.8 231.956 368.674C231.956 370.761 231.243 372.546 229.817 374.03C228.39 375.467 226.595 376.186 224.431 376.186C223.841 376.186 223.177 376.116 222.439 375.977Z" fill="#D5FFFF"/>
<path d="M242.472 360.746L258.039 360.955C266.105 360.955 272.008 360.677 275.746 360.12C276.287 361.094 276.557 362.207 276.557 363.458C276.557 364.71 275.967 365.846 274.787 366.866C273.606 367.84 272.18 368.327 270.508 368.327L262.023 367.423C262.023 367.747 261.9 369.185 261.654 371.735C260.965 377.994 260.621 384.276 260.621 390.582C260.621 396.888 261.138 403.193 262.171 409.499C260.547 410.055 258.85 410.334 257.08 410.334C255.309 410.334 253.784 409.87 252.505 408.943C251.227 407.969 250.587 406.532 250.587 404.631C250.587 402.683 250.833 399.275 251.325 394.407C251.817 389.539 252.063 384.81 252.063 380.219C252.063 375.583 251.817 371.271 251.325 367.284C245.374 367.562 240.725 368.35 237.381 369.648C236.791 368.582 236.495 367.399 236.495 366.101C236.495 364.757 237.061 363.528 238.192 362.415C239.324 361.302 240.75 360.746 242.472 360.746Z" fill="#D5FFFF"/>
<path d="M292.697 366.588C292.697 370.065 292.328 374.656 291.59 380.359C290.902 386.061 290.558 390.466 290.558 393.573C290.558 396.679 291.443 399.275 293.214 401.362C294.984 403.402 297.616 404.422 301.108 404.422C302.534 404.422 304.256 404.097 306.272 403.448C308.289 402.799 309.888 401.965 311.068 400.945C311.707 395.798 312.027 389.191 312.027 381.124C312.027 373.01 311.412 366.426 310.183 361.372C311.757 360.816 313.429 360.537 315.2 360.537C316.97 360.537 318.495 361.071 319.774 362.137C321.102 363.203 321.766 364.594 321.766 366.31C321.766 368.025 321.545 370.97 321.102 375.142C320.709 379.315 320.512 383.998 320.512 389.191C320.512 394.338 320.758 398.881 321.25 402.822C314.068 408.386 306.789 411.168 299.411 411.168C293.804 411.168 289.426 409.824 286.278 407.134C283.18 404.399 281.63 400.458 281.63 395.311C281.63 393.688 281.778 390.767 282.073 386.548C282.417 382.283 282.589 379.176 282.589 377.229C282.589 370.228 282.098 365.081 281.114 361.789C282.688 361.233 284.36 360.955 286.131 360.955C287.901 360.955 289.426 361.488 290.705 362.554C292.033 363.621 292.697 364.965 292.697 366.588Z" fill="#D5FFFF"/>
<path d="M353.643 386.687C355.856 391.092 358.66 394.94 362.054 398.232C365.448 401.524 368.817 403.657 372.162 404.631C372.162 406.578 371.621 408.085 370.538 409.151C369.456 410.218 367.907 410.751 365.89 410.751C363.284 410.751 360.308 409.174 356.963 406.022C353.618 402.822 350.692 399.067 348.183 394.755C345.724 390.397 344.273 386.571 343.83 383.28C347.372 383.28 350.274 382.399 352.536 380.637C354.848 378.828 356.004 376.278 356.004 372.986C356.004 368.814 353.25 366.727 347.741 366.727C345.97 366.727 343.806 367.005 341.248 367.562C340.904 373.821 340.732 378.875 340.732 382.723C340.732 395.056 341.248 403.982 342.281 409.499C340.707 410.055 339.035 410.334 337.264 410.334C335.493 410.334 333.944 409.8 332.616 408.734C331.337 407.668 330.698 406.253 330.698 404.492C330.698 402.73 330.944 399.67 331.436 395.311C331.928 390.907 332.173 387.383 332.173 384.74C332.173 376.626 331.559 369.416 330.329 363.111C336.969 361.395 343.289 360.537 349.29 360.537C360.259 360.537 365.743 364.223 365.743 371.595C365.743 374.841 364.562 377.901 362.201 380.776C359.89 383.604 357.037 385.575 353.643 386.687Z" fill="#D5FFFF"/>
<path d="M400.249 344.223C403.119 343.34 405.716 342.899 408.039 342.899C411.593 342.899 414.36 344.065 416.342 346.397C418.324 348.667 419.862 351.913 420.955 356.137C421.297 357.397 421.98 360.171 423.005 364.458C424.099 368.744 424.987 372.211 425.67 374.859C427.789 383.117 429.702 389.515 431.411 394.053C433.187 398.592 435.989 402.217 439.816 404.927C438.996 406.818 437.629 408.331 435.716 409.466C433.871 410.601 431.855 411.168 429.668 411.168C424.679 411.168 421.023 407.701 418.7 400.767C417.607 397.552 416.616 394.4 415.727 391.311C413.335 392.068 410.363 392.446 406.809 392.446C403.324 392.446 399.019 392.099 393.893 391.406C391.775 399.033 390.716 404.77 390.716 408.615C390.716 409.434 390.75 410.033 390.818 410.412C389.93 410.538 388.426 410.601 386.308 410.601C384.19 410.601 382.31 410.002 380.67 408.804C379.098 407.543 378.312 405.778 378.312 403.509C378.312 400.357 381.593 391.122 388.153 375.804C394.713 360.486 398.745 349.959 400.249 344.223ZM396.251 383.463C398.985 383.778 401.752 383.936 404.554 383.936C407.424 383.936 410.465 383.652 413.677 383.085C413.062 380.5 410.978 370.604 407.424 353.395C403.187 363.544 399.463 373.566 396.251 383.463Z" fill="#D5FFFF"/>
<path d="M123.106 360.12C127.321 360.12 131.003 361.302 134.153 363.667C137.302 366.032 138.877 369.092 138.877 372.847C138.877 374.841 138.295 376.487 137.133 377.785C135.97 379.083 134.54 379.733 132.845 379.733C131.149 379.733 129.792 379.524 128.775 379.107C128.92 378.365 128.993 377.577 128.993 376.742C128.944 373.821 128.193 371.456 126.74 369.648C125.286 367.794 123.154 366.866 120.344 366.866C117.583 366.866 115.015 367.724 112.641 369.44C111.236 371.387 110.145 373.937 109.37 377.09C108.595 380.243 108.207 383.349 108.207 386.409C108.207 391.509 109.225 395.798 111.26 399.275C113.343 402.707 116.565 404.422 120.926 404.422C124.947 404.422 127.66 402.962 129.065 400.041C130.374 397.49 131.028 394.106 131.028 389.887C133.499 389.887 135.558 390.327 137.205 391.208C138.853 392.043 139.676 393.433 139.676 395.381C139.676 399.925 137.593 403.703 133.426 406.717C129.259 409.684 124.56 411.168 119.327 411.168C112.495 411.168 107.311 409.012 103.774 404.7C100.237 400.342 98.4688 394.454 98.4688 387.035C98.4688 379.617 100.673 373.288 105.082 368.049C109.54 362.763 115.548 360.12 123.106 360.12Z" fill="#D5FFFF"/>
</svg>
