<svg width="37" height="56" viewBox="0 0 37 56" fill="none" xmlns="http://www.w3.org/2000/svg">
<g filter="url(#filter0_d_913_60)">
<path d="M10.1418 27.9537C9.51017 27.7912 8.86969 27.6621 8.22318 27.567C7.54307 27.4198 6.83497 27.44 6.16523 27.6256C5.4955 27.8112 4.88595 28.1563 4.39358 28.6285C3.74616 29.3689 3.3262 30.2665 3.18047 31.2215C2.87178 32.6613 2.96024 34.1531 3.43705 35.5502C3.91387 36.9474 4.76267 38.2019 5.90004 39.1903C7.51521 40.7216 9.30507 42.0747 11.236 43.224C11.5111 43.3708 11.7458 43.5779 11.9209 43.8283C12.0959 44.0788 12.2063 44.3654 12.243 44.6646C12.8284 46.7614 13.5676 48.8162 14.4551 50.8137C14.5027 50.9105 14.5734 50.9952 14.6615 51.0611C14.7497 51.1269 14.8528 51.172 14.9625 51.1928C18.8474 52.2348 22.9523 52.2688 26.8555 51.2914C27.7593 51.0032 27.7593 51.0032 28.1716 50.1389C29.728 46.1308 30.8441 41.9788 31.5017 37.7498C32.1214 33.905 32.3867 30.0156 32.2945 26.1264C32.2945 25.4592 32.2945 25.3682 31.5017 25.171C30.2876 24.8277 29.0326 24.634 27.7672 24.5948C24.4813 24.3395 21.1823 24.2737 17.8881 24.3977C15.7881 24.435 13.6963 24.6609 11.6404 25.0725C11.1329 25.171 10.7365 25.3606 10.3242 25.4592C10.126 25.5501 10.0229 25.6487 10.0229 25.8383C10.1164 26.5397 10.1562 27.2467 10.1418 27.9537ZM11.4501 41.3891H11.355C8.00114 39.7059 5.74939 37.2341 5.49567 33.3976C5.42983 32.5899 5.52121 31.7775 5.76522 31.0017C5.87286 30.6702 6.06686 30.3703 6.32899 30.1303C6.59113 29.8902 6.91279 29.7178 7.26374 29.6293C7.81826 29.5466 8.38592 29.6387 8.88083 29.8918C9.37574 30.1449 9.77109 30.5451 10.0071 31.032V32.0935C10.1496 34.4417 10.4462 36.7791 10.8951 39.0917C10.9903 39.7666 11.2043 40.5248 11.4104 41.3664L11.4501 41.3891Z" fill="url(#paint0_linear_913_60)"/>
<path d="M10.3242 25.4592C10.3242 25.4592 20.9962 22.343 32.3025 25.4592C32.3025 25.4365 22.899 29.0607 10.3242 25.4592Z" fill="#7A5BF5"/>
<path d="M28.2106 2C28.5762 3.86559 28.4957 5.78607 27.9754 7.61773C27.455 9.44939 26.5081 11.1448 25.2056 12.577C24.1353 13.9191 23.057 15.0943 21.9867 16.4363C20.3239 18.498 19.2183 20.9199 18.7676 23.4877C18.7676 23.8213 18.5535 24.3293 18.5535 24.6629C18.5535 23.9881 18.3394 23.4877 18.3394 22.8129C18.2668 19.7626 19.3321 16.7871 21.3444 14.4195C22.2107 13.3057 23.1425 12.24 24.1353 11.2274C26.1913 8.85305 27.5949 6.02534 28.2186 3.00084" fill="url(#paint1_linear_913_60)"/>
<path d="M14.2492 20.6372C14.2179 20.2944 14.1461 19.9561 14.0351 19.6288C13.9192 17.0999 14.8443 14.6284 16.6119 12.7442C17.5807 11.7056 18.4435 10.5809 19.1887 9.38537C20.1369 7.94865 20.7932 6.35383 21.1233 4.68448C21.1629 4.48735 21.2978 3.58508 21.2978 4.16132L21.3374 4.35087C21.4461 4.79203 21.5177 5.2408 21.5514 5.69289C21.53 7.96298 20.6898 10.1564 19.1728 11.9026L16.596 14.9355C15.6813 16.1658 15.0095 17.5456 14.6139 19.007C14.5717 19.1888 14.5505 19.3744 14.5505 19.5605C14.5488 19.9417 14.4422 20.3156 14.2413 20.6448L14.2492 20.6372Z" fill="url(#paint2_linear_913_60)"/>
<path d="M25.9194 22.1384C25.9194 22.0626 25.7449 21.4181 25.6894 20.8495C25.5735 18.3206 26.4986 15.849 28.2662 13.9649C29.235 12.9263 30.0978 11.8016 30.843 10.6061C31.7912 9.16934 32.4476 7.5745 32.7777 5.90516C32.8252 5.73077 33.0472 4.85882 32.9759 5.47297V5.63978C33.0742 6.05983 33.1457 6.48523 33.19 6.91359C33.1686 9.18368 32.3284 11.3771 30.8114 13.1233L28.2346 16.1562C27.3198 17.3865 26.648 18.7663 26.2524 20.2277C26.2102 20.4095 26.1889 20.5951 26.1889 20.7812C26.1747 21.1681 26.1026 21.5511 25.9748 21.9185L25.9194 22.1384Z" fill="url(#paint3_linear_913_60)"/>
</g>
<defs>
<filter id="filter0_d_913_60" x="0" y="0" width="36.1895" height="56" filterUnits="userSpaceOnUse" color-interpolation-filters="sRGB">
<feFlood flood-opacity="0" result="BackgroundImageFix"/>
<feColorMatrix in="SourceAlpha" type="matrix" values="0 0 0 0 0 0 0 0 0 0 0 0 0 0 0 0 0 0 127 0" result="hardAlpha"/>
<feOffset dy="1"/>
<feGaussianBlur stdDeviation="1.5"/>
<feComposite in2="hardAlpha" operator="out"/>
<feColorMatrix type="matrix" values="0 0 0 0 0 0 0 0 0 0 0 0 0 0 0 0 0 0 1 0"/>
<feBlend mode="normal" in2="BackgroundImageFix" result="effect1_dropShadow_913_60"/>
<feBlend mode="normal" in="SourceGraphic" in2="effect1_dropShadow_913_60" result="shape"/>
</filter>
<linearGradient id="paint0_linear_913_60" x1="37.02" y1="32.2527" x2="-10.266" y2="49.4329" gradientUnits="userSpaceOnUse">
<stop stop-color="#7A5BF5"/>
<stop offset="1" stop-color="#2EC5E7"/>
</linearGradient>
<linearGradient id="paint1_linear_913_60" x1="10851.1" y1="-35414.8" x2="10687.6" y2="-35254" gradientUnits="userSpaceOnUse">
<stop stop-color="#E5A4ED"/>
<stop offset="1" stop-color="#2EC5E7"/>
</linearGradient>
<linearGradient id="paint2_linear_913_60" x1="8032.89" y1="-25868.9" x2="7948.19" y2="-25764.9" gradientUnits="userSpaceOnUse">
<stop stop-color="#E5A4ED"/>
<stop offset="1" stop-color="#2EC5E7"/>
</linearGradient>
<linearGradient id="paint3_linear_913_60" x1="8137.89" y1="-26173.8" x2="8050.8" y2="-26068.3" gradientUnits="userSpaceOnUse">
<stop stop-color="#E5A4ED"/>
<stop offset="1" stop-color="#2EC5E7"/>
</linearGradient>
</defs>
</svg>
