<svg width="318" height="85" viewBox="0 0 318 85" fill="none" xmlns="http://www.w3.org/2000/svg">
<g filter="url(#filter0_d_913_28)">
<path d="M239.8 66.6C238.633 66.6 237.733 66.25 237.1 65.55C236.467 64.85 236.15 63.9167 236.15 62.75C236.15 61.5833 236.583 60.5833 237.45 59.75C238.317 58.8833 239.333 58.45 240.5 58.45C241.7 58.45 242.617 58.8 243.25 59.5C243.883 60.1667 244.2 61.0833 244.2 62.25C244.2 63.3833 243.75 64.4 242.85 65.3C241.983 66.1667 240.967 66.6 239.8 66.6ZM271.602 62.95C268.769 65.3833 266.269 66.6 264.102 66.6C261.969 66.6 260.736 65.5333 260.402 63.4C259.402 64.4 258.286 65.1833 257.052 65.75C255.819 66.3167 254.736 66.6 253.802 66.6C252.202 66.6 250.836 65.9 249.702 64.5C248.569 63.1 248.002 60.9333 248.002 58C248.002 53.6 248.936 50.15 250.802 47.65C252.669 45.1167 254.769 43.85 257.102 43.85C259.469 43.85 261.452 44.3833 263.052 45.45C264.086 40.05 264.602 35.8 264.602 32.7L264.352 30.6C266.852 29.7333 269.302 29.3 271.702 29.3C271.969 29.8667 272.102 30.5167 272.102 31.25C272.102 33.6833 271.369 38.6333 269.902 46.1C268.436 53.5333 267.702 58.5833 267.702 61.25C267.702 62.05 267.886 62.45 268.252 62.45C268.452 62.45 269.086 62.1333 270.152 61.5L270.652 61.2L271.602 62.95ZM259.552 46.8C258.386 46.8 257.369 47.95 256.502 50.25C255.669 52.55 255.252 54.8333 255.252 57.1C255.252 59.3333 255.402 60.7667 255.702 61.4C256.036 62.0333 256.519 62.35 257.152 62.35C258.252 62.35 259.336 61.9 260.402 61C260.502 59.6667 261.252 55.2333 262.652 47.7C261.519 47.1 260.486 46.8 259.552 46.8ZM272.8 57.35C272.8 53.1833 274.05 49.9 276.55 47.5C279.083 45.0667 281.95 43.85 285.15 43.85C287.117 43.85 288.733 44.3333 290 45.3C291.267 46.2667 291.9 47.5667 291.9 49.2C291.9 50.8 291.483 52.15 290.65 53.25C289.85 54.35 288.867 55.2 287.7 55.8C285.333 56.9667 283.167 57.7 281.2 58L280 58.15C280.233 61.2833 281.517 62.85 283.85 62.85C284.65 62.85 285.5 62.65 286.4 62.25C287.3 61.85 288 61.45 288.5 61.05L289.25 60.45L290.45 62.05C290.183 62.4167 289.65 62.9 288.85 63.5C288.05 64.1 287.3 64.6 286.6 65C284.667 66.0667 282.55 66.6 280.25 66.6C277.95 66.6 276.133 65.7833 274.8 64.15C273.467 62.5167 272.8 60.25 272.8 57.35ZM279.95 55.7C281.65 55.4 283 54.6833 284 53.55C285 52.4167 285.5 50.95 285.5 49.15C285.5 47.35 284.967 46.45 283.9 46.45C282.633 46.45 281.65 47.5333 280.95 49.7C280.283 51.8333 279.95 53.8333 279.95 55.7ZM297.821 43.85C299.287 43.85 300.371 44.15 301.071 44.75C301.804 45.35 302.171 46.5833 302.171 48.45C302.171 49.45 301.871 51.5 301.271 54.6C300.671 57.6667 300.371 59.5333 300.371 60.2C300.371 61.5333 300.637 62.2 301.171 62.2C302.437 62.2 303.821 61.2667 305.321 59.4C306.854 57.5 307.654 55.9167 307.721 54.65L304.321 50.85C304.454 49.4167 304.804 48.1167 305.371 46.95C305.937 45.7833 306.471 44.9667 306.971 44.5L307.671 43.85C309.104 43.85 310.187 44.2333 310.921 45C311.654 45.7667 312.021 46.6667 312.021 47.7C312.021 50.3333 311.371 53.1167 310.071 56.05C308.771 58.9833 307.037 61.4833 304.871 63.55C302.704 65.5833 300.504 66.6 298.271 66.6C296.871 66.6 295.787 66.1667 295.021 65.3C294.287 64.4333 293.921 63.3 293.921 61.9C293.921 60.4667 294.021 58.55 294.221 56.15C294.454 53.75 294.571 51.3667 294.571 49C294.571 48.4667 294.371 47.8333 293.971 47.1C293.604 46.3667 293.221 45.7833 292.821 45.35L292.971 44.75C294.771 44.15 296.387 43.85 297.821 43.85Z" fill="white"/>
</g>
<g filter="url(#filter1_d_913_28)">
<path d="M12.1367 42.7637H6.83398V38.7939H12.1367C12.8594 38.7939 13.4453 38.6719 13.8945 38.4277C14.3438 38.1836 14.6709 37.8467 14.876 37.417C15.0908 36.9775 15.1982 36.4844 15.1982 35.9375C15.1982 35.3516 15.0908 34.8096 14.876 34.3115C14.6709 33.8135 14.3438 33.4131 13.8945 33.1104C13.4453 32.7979 12.8594 32.6416 12.1367 32.6416H8.76758V50H3.62598V28.6719H12.1367C13.8457 28.6719 15.3154 28.9844 16.5459 29.6094C17.7861 30.2344 18.7383 31.0938 19.4023 32.1875C20.0664 33.2715 20.3984 34.5117 20.3984 35.9082C20.3984 37.2852 20.0664 38.4863 19.4023 39.5117C18.7383 40.5371 17.7861 41.3379 16.5459 41.9141C15.3154 42.4805 13.8457 42.7637 12.1367 42.7637ZM30.9893 46.0156V39.4824C30.9893 39.0332 30.9258 38.6475 30.7988 38.3252C30.6719 38.0029 30.4717 37.7539 30.1982 37.5781C29.9248 37.3926 29.5586 37.2998 29.0996 37.2998C28.7285 37.2998 28.4111 37.3633 28.1475 37.4902C27.8838 37.6172 27.6836 37.8076 27.5469 38.0615C27.4102 38.3154 27.3418 38.6377 27.3418 39.0283H22.4053C22.4053 38.2959 22.5664 37.6172 22.8887 36.9922C23.2207 36.3574 23.6895 35.8057 24.2949 35.3369C24.9102 34.8682 25.6426 34.5068 26.4922 34.2529C27.3516 33.9893 28.3086 33.8574 29.3633 33.8574C30.623 33.8574 31.7461 34.0674 32.7324 34.4873C33.7285 34.9072 34.5146 35.5371 35.0908 36.377C35.667 37.207 35.9551 38.252 35.9551 39.5117V46.001C35.9551 47.0361 36.0137 47.8223 36.1309 48.3594C36.248 48.8867 36.4141 49.3506 36.6289 49.751V50H31.6777C31.4434 49.5117 31.2676 48.916 31.1504 48.2129C31.043 47.5 30.9893 46.7676 30.9893 46.0156ZM31.5898 40.3174L31.6191 42.9541H29.4365C28.9775 42.9541 28.5869 43.0176 28.2646 43.1445C27.9521 43.2715 27.6982 43.4473 27.5029 43.6719C27.3174 43.8867 27.1807 44.1309 27.0928 44.4043C27.0146 44.6777 26.9756 44.9658 26.9756 45.2686C26.9756 45.5615 27.0439 45.8252 27.1807 46.0596C27.3271 46.2842 27.5225 46.46 27.7666 46.5869C28.0107 46.7139 28.2842 46.7773 28.5869 46.7773C29.1338 46.7773 29.5977 46.6748 29.9785 46.4697C30.3691 46.2549 30.667 45.9961 30.8721 45.6934C31.0771 45.3906 31.1797 45.1074 31.1797 44.8438L32.2637 46.8652C32.0684 47.2559 31.8438 47.6514 31.5898 48.0518C31.3457 48.4521 31.0381 48.8232 30.667 49.165C30.3057 49.4971 29.8613 49.7705 29.334 49.9854C28.8066 50.1904 28.167 50.293 27.415 50.293C26.4385 50.293 25.54 50.0928 24.7197 49.6924C23.9092 49.292 23.2598 48.7354 22.7715 48.0225C22.2832 47.2998 22.0391 46.4697 22.0391 45.5322C22.0391 44.7119 22.1855 43.9795 22.4785 43.335C22.7812 42.6904 23.2354 42.1436 23.8408 41.6943C24.4463 41.2451 25.2178 40.9033 26.1553 40.6689C27.0928 40.4346 28.1963 40.3174 29.4658 40.3174H31.5898ZM47.9521 46.1475V34.1504H52.9033V50H48.2744L47.9521 46.1475ZM48.4209 42.9248L49.71 42.8955C49.71 43.96 49.583 44.9463 49.3291 45.8545C49.0752 46.7529 48.6992 47.5342 48.2012 48.1982C47.7129 48.8623 47.1074 49.3799 46.3848 49.751C45.6719 50.1123 44.8467 50.293 43.9092 50.293C43.1279 50.293 42.4102 50.1855 41.7559 49.9707C41.1113 49.7461 40.5547 49.3994 40.0859 48.9307C39.6172 48.4521 39.251 47.8418 38.9873 47.0996C38.7334 46.3477 38.6064 45.4492 38.6064 44.4043V34.1504H43.543V44.4336C43.543 44.7852 43.5869 45.0879 43.6748 45.3418C43.7627 45.5957 43.8896 45.8105 44.0557 45.9863C44.2217 46.1523 44.4268 46.2793 44.6709 46.3672C44.9248 46.4453 45.2129 46.4844 45.5352 46.4844C46.2773 46.4844 46.8584 46.3281 47.2783 46.0156C47.6982 45.7031 47.9912 45.2783 48.1572 44.7412C48.333 44.2041 48.4209 43.5986 48.4209 42.9248ZM60.8428 27.5V50H55.8916V27.5H60.8428ZM63.2744 42.2363V41.9287C63.2744 40.7666 63.4404 39.6973 63.7725 38.7207C64.1045 37.7344 64.5928 36.8799 65.2373 36.1572C65.8818 35.4346 66.6777 34.873 67.625 34.4727C68.5723 34.0625 69.666 33.8574 70.9062 33.8574C72.1562 33.8574 73.2549 34.0625 74.2021 34.4727C75.1592 34.873 75.96 35.4346 76.6045 36.1572C77.249 36.8799 77.7373 37.7344 78.0693 38.7207C78.4014 39.6973 78.5674 40.7666 78.5674 41.9287V42.2363C78.5674 43.3887 78.4014 44.458 78.0693 45.4443C77.7373 46.4209 77.249 47.2754 76.6045 48.0078C75.96 48.7305 75.1641 49.292 74.2168 49.6924C73.2695 50.0928 72.1758 50.293 70.9355 50.293C69.6953 50.293 68.5967 50.0928 67.6396 49.6924C66.6826 49.292 65.8818 48.7305 65.2373 48.0078C64.5928 47.2754 64.1045 46.4209 63.7725 45.4443C63.4404 44.458 63.2744 43.3887 63.2744 42.2363ZM68.2109 41.9287V42.2363C68.2109 42.832 68.2549 43.3887 68.3428 43.9062C68.4307 44.4238 68.5771 44.8779 68.7822 45.2686C68.9873 45.6494 69.2656 45.9473 69.6172 46.1621C69.9688 46.377 70.4082 46.4844 70.9355 46.4844C71.4531 46.4844 71.8828 46.377 72.2246 46.1621C72.5762 45.9473 72.8545 45.6494 73.0596 45.2686C73.2646 44.8779 73.4111 44.4238 73.499 43.9062C73.5869 43.3887 73.6309 42.832 73.6309 42.2363V41.9287C73.6309 41.3525 73.5869 40.8105 73.499 40.3027C73.4111 39.7852 73.2646 39.3311 73.0596 38.9404C72.8545 38.54 72.5762 38.2275 72.2246 38.0029C71.873 37.7783 71.4336 37.666 70.9062 37.666C70.3887 37.666 69.9541 37.7783 69.6025 38.0029C69.2607 38.2275 68.9873 38.54 68.7822 38.9404C68.5771 39.3311 68.4307 39.7852 68.3428 40.3027C68.2549 40.8105 68.2109 41.3525 68.2109 41.9287ZM115.047 37.1387V41.0938H104.104V37.1387H115.047ZM105.818 28.6719V50H100.677V28.6719H105.818ZM118.504 28.6719V50H113.377V28.6719H118.504ZM130.472 40.9326H124.979L124.949 37.5635H129.402C130.203 37.5635 130.843 37.4756 131.321 37.2998C131.8 37.1143 132.146 36.8457 132.361 36.4941C132.586 36.1426 132.698 35.7031 132.698 35.1758C132.698 34.5703 132.586 34.082 132.361 33.7109C132.137 33.3398 131.78 33.0713 131.292 32.9053C130.813 32.7295 130.193 32.6416 129.432 32.6416H126.912V50H121.771V28.6719H129.432C130.75 28.6719 131.927 28.7939 132.962 29.0381C133.997 29.2725 134.876 29.6338 135.599 30.1221C136.331 30.6104 136.888 31.2256 137.269 31.9678C137.649 32.7002 137.84 33.5645 137.84 34.5605C137.84 35.4297 137.654 36.2451 137.283 37.0068C136.912 37.7686 136.292 38.3887 135.423 38.8672C134.563 39.3359 133.387 39.5801 131.893 39.5996L130.472 40.9326ZM130.267 50H123.733L125.491 46.0449H130.267C130.97 46.0449 131.531 45.9375 131.951 45.7227C132.381 45.498 132.688 45.2051 132.874 44.8438C133.069 44.4727 133.167 44.0625 133.167 43.6133C133.167 43.0664 133.074 42.5928 132.889 42.1924C132.713 41.792 132.43 41.4844 132.039 41.2695C131.648 41.0449 131.126 40.9326 130.472 40.9326H126.15L126.18 37.5635H131.351L132.552 38.9111C133.978 38.8525 135.105 39.0527 135.936 39.5117C136.775 39.9707 137.376 40.5762 137.737 41.3281C138.099 42.0801 138.279 42.8662 138.279 43.6865C138.279 45.083 137.977 46.25 137.371 47.1875C136.775 48.125 135.882 48.8281 134.69 49.2969C133.499 49.7656 132.024 50 130.267 50ZM173.411 44.3311C173.411 43.999 173.362 43.7012 173.265 43.4375C173.167 43.1641 172.986 42.9102 172.723 42.6758C172.459 42.4414 172.078 42.207 171.58 41.9727C171.092 41.7285 170.447 41.4746 169.646 41.2109C168.709 40.8984 167.806 40.5469 166.937 40.1562C166.067 39.7559 165.291 39.292 164.607 38.7646C163.924 38.2275 163.382 37.6025 162.981 36.8896C162.581 36.167 162.381 35.3271 162.381 34.3701C162.381 33.4521 162.586 32.627 162.996 31.8945C163.406 31.1523 163.978 30.5225 164.71 30.0049C165.452 29.4775 166.321 29.0771 167.317 28.8037C168.313 28.5205 169.402 28.3789 170.584 28.3789C172.146 28.3789 173.523 28.6523 174.715 29.1992C175.916 29.7363 176.854 30.5029 177.527 31.499C178.211 32.4854 178.553 33.6523 178.553 35H173.44C173.44 34.4629 173.328 33.9893 173.104 33.5791C172.889 33.1689 172.562 32.8467 172.122 32.6123C171.683 32.3779 171.131 32.2607 170.467 32.2607C169.822 32.2607 169.28 32.3584 168.841 32.5537C168.401 32.749 168.069 33.0127 167.845 33.3447C167.62 33.667 167.508 34.0234 167.508 34.4141C167.508 34.7363 167.596 35.0293 167.771 35.293C167.957 35.5469 168.216 35.7861 168.548 36.0107C168.89 36.2354 169.3 36.4502 169.778 36.6553C170.267 36.8604 170.813 37.0605 171.419 37.2559C172.552 37.6172 173.558 38.0225 174.437 38.4717C175.325 38.9111 176.072 39.4141 176.678 39.9805C177.293 40.5371 177.757 41.1719 178.069 41.8848C178.392 42.5977 178.553 43.4033 178.553 44.3018C178.553 45.2588 178.367 46.1084 177.996 46.8506C177.625 47.5928 177.093 48.2227 176.399 48.7402C175.706 49.248 174.876 49.6338 173.909 49.8975C172.942 50.1611 171.863 50.293 170.672 50.293C169.578 50.293 168.499 50.1562 167.435 49.8828C166.38 49.5996 165.423 49.1699 164.563 48.5938C163.704 48.0078 163.016 47.2607 162.498 46.3525C161.99 45.4346 161.736 44.3457 161.736 43.0859H166.893C166.893 43.7109 166.976 44.2383 167.142 44.668C167.308 45.0977 167.552 45.4443 167.874 45.708C168.196 45.9619 168.592 46.1475 169.061 46.2646C169.529 46.3721 170.066 46.4258 170.672 46.4258C171.326 46.4258 171.854 46.333 172.254 46.1475C172.654 45.9521 172.947 45.6982 173.133 45.3857C173.318 45.0635 173.411 44.7119 173.411 44.3311ZM180.354 42.2363V41.9287C180.354 40.7666 180.521 39.6973 180.853 38.7207C181.185 37.7344 181.673 36.8799 182.317 36.1572C182.962 35.4346 183.758 34.873 184.705 34.4727C185.652 34.0625 186.746 33.8574 187.986 33.8574C189.236 33.8574 190.335 34.0625 191.282 34.4727C192.239 34.873 193.04 35.4346 193.685 36.1572C194.329 36.8799 194.817 37.7344 195.149 38.7207C195.481 39.6973 195.647 40.7666 195.647 41.9287V42.2363C195.647 43.3887 195.481 44.458 195.149 45.4443C194.817 46.4209 194.329 47.2754 193.685 48.0078C193.04 48.7305 192.244 49.292 191.297 49.6924C190.35 50.0928 189.256 50.293 188.016 50.293C186.775 50.293 185.677 50.0928 184.72 49.6924C183.763 49.292 182.962 48.7305 182.317 48.0078C181.673 47.2754 181.185 46.4209 180.853 45.4443C180.521 44.458 180.354 43.3887 180.354 42.2363ZM185.291 41.9287V42.2363C185.291 42.832 185.335 43.3887 185.423 43.9062C185.511 44.4238 185.657 44.8779 185.862 45.2686C186.067 45.6494 186.346 45.9473 186.697 46.1621C187.049 46.377 187.488 46.4844 188.016 46.4844C188.533 46.4844 188.963 46.377 189.305 46.1621C189.656 45.9473 189.935 45.6494 190.14 45.2686C190.345 44.8779 190.491 44.4238 190.579 43.9062C190.667 43.3887 190.711 42.832 190.711 42.2363V41.9287C190.711 41.3525 190.667 40.8105 190.579 40.3027C190.491 39.7852 190.345 39.3311 190.14 38.9404C189.935 38.54 189.656 38.2275 189.305 38.0029C188.953 37.7783 188.514 37.666 187.986 37.666C187.469 37.666 187.034 37.7783 186.683 38.0029C186.341 38.2275 186.067 38.54 185.862 38.9404C185.657 39.3311 185.511 39.7852 185.423 40.3027C185.335 40.8105 185.291 41.3525 185.291 41.9287ZM207.103 46.1475V34.1504H212.054V50H207.425L207.103 46.1475ZM207.571 42.9248L208.86 42.8955C208.86 43.96 208.733 44.9463 208.479 45.8545C208.226 46.7529 207.85 47.5342 207.352 48.1982C206.863 48.8623 206.258 49.3799 205.535 49.751C204.822 50.1123 203.997 50.293 203.06 50.293C202.278 50.293 201.561 50.1855 200.906 49.9707C200.262 49.7461 199.705 49.3994 199.236 48.9307C198.768 48.4521 198.401 47.8418 198.138 47.0996C197.884 46.3477 197.757 45.4492 197.757 44.4043V34.1504H202.693V44.4336C202.693 44.7852 202.737 45.0879 202.825 45.3418C202.913 45.5957 203.04 45.8105 203.206 45.9863C203.372 46.1523 203.577 46.2793 203.821 46.3672C204.075 46.4453 204.363 46.4844 204.686 46.4844C205.428 46.4844 206.009 46.3281 206.429 46.0156C206.849 45.7031 207.142 45.2783 207.308 44.7412C207.483 44.2041 207.571 43.5986 207.571 42.9248ZM227.815 46.1914V50H215.54V46.1914H227.815ZM227.669 36.8164L217.752 50H214.368V47.2461L224.271 34.1504H227.669V36.8164ZM226.043 34.1504V37.959H214.661V34.1504H226.043ZM238.479 46.0156V39.4824C238.479 39.0332 238.416 38.6475 238.289 38.3252C238.162 38.0029 237.962 37.7539 237.688 37.5781C237.415 37.3926 237.049 37.2998 236.59 37.2998C236.219 37.2998 235.901 37.3633 235.638 37.4902C235.374 37.6172 235.174 37.8076 235.037 38.0615C234.9 38.3154 234.832 38.6377 234.832 39.0283H229.896C229.896 38.2959 230.057 37.6172 230.379 36.9922C230.711 36.3574 231.18 35.8057 231.785 35.3369C232.4 34.8682 233.133 34.5068 233.982 34.2529C234.842 33.9893 235.799 33.8574 236.854 33.8574C238.113 33.8574 239.236 34.0674 240.223 34.4873C241.219 34.9072 242.005 35.5371 242.581 36.377C243.157 37.207 243.445 38.252 243.445 39.5117V46.001C243.445 47.0361 243.504 47.8223 243.621 48.3594C243.738 48.8867 243.904 49.3506 244.119 49.751V50H239.168C238.934 49.5117 238.758 48.916 238.641 48.2129C238.533 47.5 238.479 46.7676 238.479 46.0156ZM239.08 40.3174L239.109 42.9541H236.927C236.468 42.9541 236.077 43.0176 235.755 43.1445C235.442 43.2715 235.188 43.4473 234.993 43.6719C234.808 43.8867 234.671 44.1309 234.583 44.4043C234.505 44.6777 234.466 44.9658 234.466 45.2686C234.466 45.5615 234.534 45.8252 234.671 46.0596C234.817 46.2842 235.013 46.46 235.257 46.5869C235.501 46.7139 235.774 46.7773 236.077 46.7773C236.624 46.7773 237.088 46.6748 237.469 46.4697C237.859 46.2549 238.157 45.9961 238.362 45.6934C238.567 45.3906 238.67 45.1074 238.67 44.8438L239.754 46.8652C239.559 47.2559 239.334 47.6514 239.08 48.0518C238.836 48.4521 238.528 48.8232 238.157 49.165C237.796 49.4971 237.352 49.7705 236.824 49.9854C236.297 50.1904 235.657 50.293 234.905 50.293C233.929 50.293 233.03 50.0928 232.21 49.6924C231.399 49.292 230.75 48.7354 230.262 48.0225C229.773 47.2998 229.529 46.4697 229.529 45.5322C229.529 44.7119 229.676 43.9795 229.969 43.335C230.271 42.6904 230.726 42.1436 231.331 41.6943C231.937 41.2451 232.708 40.9033 233.646 40.6689C234.583 40.4346 235.687 40.3174 236.956 40.3174H239.08Z" fill="#2EC5E7"/>
<path d="M90.473 56.65C90.473 56.95 91.573 57.45 93.773 58.15L94.823 58.5L94.423 61.15C93.9564 61.1833 93.523 61.2 93.123 61.2C89.323 61.2 86.1064 60.9667 83.473 60.5C82.9064 59.7333 82.5897 59.05 82.523 58.45C84.523 38.8167 86.173 24.5 87.473 15.5C87.5397 14.9667 87.7897 14.4667 88.223 14C88.6897 13.5333 89.173 13.3 89.673 13.3C92.5064 13.3 96.023 13.65 100.223 14.35L100.023 17.3C96.7897 17.3667 95.1064 17.7167 94.973 18.35C94.8064 19.15 94.4064 21.7167 93.773 26.05C93.1397 30.35 92.7064 33.55 92.473 35.65C92.2397 37.7167 91.9897 39.9 91.723 42.2C91.4564 44.5 91.2397 46.3167 91.073 47.65C90.673 51.35 90.473 54.35 90.473 56.65ZM150.01 17.85C150.01 17.55 148.926 17.05 146.76 16.35L145.66 16L146.06 13.35C146.526 13.3167 146.96 13.3 147.36 13.3C151.16 13.3 154.376 13.5333 157.01 14C157.576 14.7667 157.893 15.45 157.96 16.05C155.96 35.6833 154.31 50 153.01 59C152.943 59.5333 152.676 60.0333 152.21 60.5C151.776 60.9667 151.31 61.2 150.81 61.2C147.976 61.2 144.46 60.85 140.26 60.15L140.46 57.2C143.693 57.1333 145.376 56.7833 145.51 56.15C145.676 55.35 146.076 52.8 146.71 48.5C147.343 44.1667 147.776 40.9667 148.01 38.9C148.243 36.8 148.493 34.6 148.76 32.3C149.026 30 149.243 28.1833 149.41 26.85C149.81 23.15 150.01 20.15 150.01 17.85Z" fill="white"/>
</g>
<defs>
<filter id="filter0_d_913_28" x="233.15" y="28.2998" width="83.8711" height="45.2998" filterUnits="userSpaceOnUse" color-interpolation-filters="sRGB">
<feFlood flood-opacity="0" result="BackgroundImageFix"/>
<feColorMatrix in="SourceAlpha" type="matrix" values="0 0 0 0 0 0 0 0 0 0 0 0 0 0 0 0 0 0 127 0" result="hardAlpha"/>
<feOffset dx="1" dy="3"/>
<feGaussianBlur stdDeviation="2"/>
<feComposite in2="hardAlpha" operator="out"/>
<feColorMatrix type="matrix" values="0 0 0 0 0 0 0 0 0 0 0 0 0 0 0 0 0 0 1 0"/>
<feBlend mode="normal" in2="BackgroundImageFix" result="effect1_dropShadow_913_28"/>
<feBlend mode="normal" in="SourceGraphic" in2="effect1_dropShadow_913_28" result="shape"/>
</filter>
<filter id="filter1_d_913_28" x="0.625" y="12.2998" width="248.494" height="55.9004" filterUnits="userSpaceOnUse" color-interpolation-filters="sRGB">
<feFlood flood-opacity="0" result="BackgroundImageFix"/>
<feColorMatrix in="SourceAlpha" type="matrix" values="0 0 0 0 0 0 0 0 0 0 0 0 0 0 0 0 0 0 127 0" result="hardAlpha"/>
<feOffset dx="1" dy="3"/>
<feGaussianBlur stdDeviation="2"/>
<feComposite in2="hardAlpha" operator="out"/>
<feColorMatrix type="matrix" values="0 0 0 0 0 0 0 0 0 0 0 0 0 0 0 0 0 0 1 0"/>
<feBlend mode="normal" in2="BackgroundImageFix" result="effect1_dropShadow_913_28"/>
<feBlend mode="normal" in="SourceGraphic" in2="effect1_dropShadow_913_28" result="shape"/>
</filter>
</defs>
</svg>
